<mxfile host="app.diagrams.net" modified="2024-01-17T05:42:21.440Z" agent="Mozilla/5.0 (Windows NT 10.0; Win64; x64) AppleWebKit/537.36 (KHTML, like Gecko) Chrome/120.0.0.0 Safari/537.36 Edg/120.0.0.0" etag="wyUBifioaks9QzcmQPpE" version="22.1.17" type="github">
  <diagram name="Page-1" id="wHwL16nmkRW3PugE0iE-">
    <mxGraphModel dx="881" dy="519" grid="1" gridSize="10" guides="1" tooltips="1" connect="1" arrows="1" fold="1" page="1" pageScale="1" pageWidth="850" pageHeight="1100" math="0" shadow="0">
      <root>
        <mxCell id="0" />
        <mxCell id="1" parent="0" />
        <mxCell id="bVMgaKVlsnB9EyqCw9fo-23" value="" style="edgeStyle=orthogonalEdgeStyle;rounded=0;orthogonalLoop=1;jettySize=auto;html=1;" edge="1" parent="1" source="bVMgaKVlsnB9EyqCw9fo-1" target="bVMgaKVlsnB9EyqCw9fo-3">
          <mxGeometry relative="1" as="geometry" />
        </mxCell>
        <mxCell id="bVMgaKVlsnB9EyqCw9fo-1" value="&lt;div style=&quot;text-align: justify; font-size: 14px;&quot;&gt;&lt;span style=&quot;background-color: initial; font-size: 14px;&quot;&gt;start&lt;/span&gt;&lt;/div&gt;" style="rounded=1;whiteSpace=wrap;html=1;fontSize=14;" vertex="1" parent="1">
          <mxGeometry x="210" width="100" height="30" as="geometry" />
        </mxCell>
        <mxCell id="bVMgaKVlsnB9EyqCw9fo-17" style="edgeStyle=orthogonalEdgeStyle;rounded=0;orthogonalLoop=1;jettySize=auto;html=1;entryX=0.5;entryY=0;entryDx=0;entryDy=0;" edge="1" parent="1" source="bVMgaKVlsnB9EyqCw9fo-3" target="bVMgaKVlsnB9EyqCw9fo-4">
          <mxGeometry relative="1" as="geometry" />
        </mxCell>
        <mxCell id="bVMgaKVlsnB9EyqCw9fo-3" value="&lt;font style=&quot;font-size: 13px;&quot;&gt;&lt;span style=&quot;background-color: rgb(255, 255, 255); color: rgb(31, 31, 31); font-family: &amp;quot;Google Sans&amp;quot;, &amp;quot;Helvetica Neue&amp;quot;, sans-serif; text-align: start;&quot;&gt;Identify relevant vibration sensors and data sources.&amp;nbsp;&lt;/span&gt;Collect&amp;nbsp;available vibration data&lt;/font&gt;" style="rounded=0;whiteSpace=wrap;html=1;" vertex="1" parent="1">
          <mxGeometry x="165" y="60" width="190" height="70" as="geometry" />
        </mxCell>
        <mxCell id="bVMgaKVlsnB9EyqCw9fo-24" value="" style="edgeStyle=orthogonalEdgeStyle;rounded=0;orthogonalLoop=1;jettySize=auto;html=1;" edge="1" parent="1" source="bVMgaKVlsnB9EyqCw9fo-4" target="bVMgaKVlsnB9EyqCw9fo-6">
          <mxGeometry relative="1" as="geometry" />
        </mxCell>
        <mxCell id="bVMgaKVlsnB9EyqCw9fo-4" value="&lt;span style=&quot;background-color: rgb(255, 255, 255); color: rgb(31, 31, 31); font-family: &amp;quot;Google Sans&amp;quot;, &amp;quot;Helvetica Neue&amp;quot;, sans-serif; font-size: 16px; text-align: start;&quot;&gt;Extract time-domain features and&amp;nbsp;&lt;/span&gt;&lt;span style=&quot;background-color: rgb(255, 255, 255); color: rgb(31, 31, 31); font-family: &amp;quot;Google Sans&amp;quot;, &amp;quot;Helvetica Neue&amp;quot;, sans-serif; font-size: 16px; text-align: start;&quot;&gt;Calculate frequency-domain features&lt;/span&gt;&lt;span style=&quot;background-color: rgb(255, 255, 255); color: rgb(31, 31, 31); font-family: &amp;quot;Google Sans&amp;quot;, &amp;quot;Helvetica Neue&amp;quot;, sans-serif; font-size: 16px; text-align: start;&quot;&gt;&lt;br&gt;&lt;/span&gt;" style="rounded=0;whiteSpace=wrap;html=1;" vertex="1" parent="1">
          <mxGeometry x="137.5" y="150" width="245" height="60" as="geometry" />
        </mxCell>
        <mxCell id="bVMgaKVlsnB9EyqCw9fo-5" value="end" style="rounded=1;whiteSpace=wrap;html=1;" vertex="1" parent="1">
          <mxGeometry x="517.49" y="100" width="70" height="30" as="geometry" />
        </mxCell>
        <mxCell id="bVMgaKVlsnB9EyqCw9fo-25" value="" style="edgeStyle=orthogonalEdgeStyle;rounded=0;orthogonalLoop=1;jettySize=auto;html=1;" edge="1" parent="1" source="bVMgaKVlsnB9EyqCw9fo-6" target="bVMgaKVlsnB9EyqCw9fo-8">
          <mxGeometry relative="1" as="geometry" />
        </mxCell>
        <mxCell id="bVMgaKVlsnB9EyqCw9fo-6" value="&lt;span style=&quot;background-color: rgb(255, 255, 255); color: rgb(31, 31, 31); font-family: &amp;quot;Google Sans&amp;quot;, &amp;quot;Helvetica Neue&amp;quot;, sans-serif; font-size: 16px; text-align: start;&quot;&gt;Define thresholds for various features based on historical data and expert knowledge.&lt;/span&gt;&lt;span style=&quot;background-color: rgb(255, 255, 255); color: rgb(31, 31, 31); font-family: &amp;quot;Google Sans&amp;quot;, &amp;quot;Helvetica Neue&amp;quot;, sans-serif; font-size: 16px; text-align: start;&quot;&gt;&lt;br&gt;&lt;/span&gt;&lt;br&gt;" style="rounded=0;whiteSpace=wrap;html=1;" vertex="1" parent="1">
          <mxGeometry x="172.5" y="230" width="175" height="90" as="geometry" />
        </mxCell>
        <mxCell id="bVMgaKVlsnB9EyqCw9fo-26" value="" style="edgeStyle=orthogonalEdgeStyle;rounded=0;orthogonalLoop=1;jettySize=auto;html=1;" edge="1" parent="1" source="bVMgaKVlsnB9EyqCw9fo-8" target="bVMgaKVlsnB9EyqCw9fo-9">
          <mxGeometry relative="1" as="geometry" />
        </mxCell>
        <mxCell id="bVMgaKVlsnB9EyqCw9fo-8" value="&lt;font style=&quot;font-size: 15px;&quot;&gt;Identify anomalies that exceed the thresholds and&amp;nbsp;&lt;span style=&quot;background-color: rgb(255, 255, 255); color: rgb(31, 31, 31); font-family: &amp;quot;Google Sans&amp;quot;, &amp;quot;Helvetica Neue&amp;quot;, sans-serif; text-align: start;&quot;&gt;Correlate anomalies with specific faults or potential failure modes.&lt;/span&gt;&lt;/font&gt;&lt;br&gt;" style="rounded=0;whiteSpace=wrap;html=1;" vertex="1" parent="1">
          <mxGeometry x="155" y="350" width="210" height="80" as="geometry" />
        </mxCell>
        <mxCell id="bVMgaKVlsnB9EyqCw9fo-27" value="" style="edgeStyle=orthogonalEdgeStyle;rounded=0;orthogonalLoop=1;jettySize=auto;html=1;" edge="1" parent="1" source="bVMgaKVlsnB9EyqCw9fo-9" target="bVMgaKVlsnB9EyqCw9fo-10">
          <mxGeometry relative="1" as="geometry" />
        </mxCell>
        <mxCell id="bVMgaKVlsnB9EyqCw9fo-9" value="&lt;span style=&quot;background-color: rgb(255, 255, 255); color: rgb(31, 31, 31); font-family: &amp;quot;Google Sans&amp;quot;, &amp;quot;Helvetica Neue&amp;quot;, sans-serif; font-size: 16px; text-align: start;&quot;&gt;Schedule preventive or corrective maintenance activities and&amp;nbsp;&lt;/span&gt;&lt;span style=&quot;background-color: rgb(255, 255, 255); color: rgb(31, 31, 31); font-family: &amp;quot;Google Sans&amp;quot;, &amp;quot;Helvetica Neue&amp;quot;, sans-serif; font-size: 16px; text-align: start;&quot;&gt;Implement predictive maintenance strategies based on predicted failure times.&lt;/span&gt;&lt;span style=&quot;background-color: rgb(255, 255, 255); color: rgb(31, 31, 31); font-family: &amp;quot;Google Sans&amp;quot;, &amp;quot;Helvetica Neue&amp;quot;, sans-serif; font-size: 16px; text-align: start;&quot;&gt;&lt;br&gt;&lt;/span&gt;" style="rounded=0;whiteSpace=wrap;html=1;" vertex="1" parent="1">
          <mxGeometry x="425" y="336.25" width="255" height="107.5" as="geometry" />
        </mxCell>
        <mxCell id="bVMgaKVlsnB9EyqCw9fo-28" value="" style="edgeStyle=orthogonalEdgeStyle;rounded=0;orthogonalLoop=1;jettySize=auto;html=1;" edge="1" parent="1" source="bVMgaKVlsnB9EyqCw9fo-10" target="bVMgaKVlsnB9EyqCw9fo-5">
          <mxGeometry relative="1" as="geometry" />
        </mxCell>
        <mxCell id="bVMgaKVlsnB9EyqCw9fo-10" value="&lt;span style=&quot;background-color: rgb(255, 255, 255); color: rgb(31, 31, 31); font-family: &amp;quot;Google Sans&amp;quot;, &amp;quot;Helvetica Neue&amp;quot;, sans-serif; font-size: 16px; text-align: start;&quot;&gt;Monitor the effectiveness of the condition-based maintenance approach.&lt;/span&gt;" style="rounded=0;whiteSpace=wrap;html=1;" vertex="1" parent="1">
          <mxGeometry x="474.37" y="190" width="156.25" height="110" as="geometry" />
        </mxCell>
      </root>
    </mxGraphModel>
  </diagram>
</mxfile>
